<svg xmlns="http://www.w3.org/2000/svg" xmlns:xlink="http://www.w3.org/1999/xlink" version="1.1" x="0px" y="0px" viewBox="0 0 512 640" enable-background="new 0 0 512 512" xml:space="preserve"><polygon points="67.1,480 106.234,480 124.9,424 85.766,424 "/><polygon points="387.1,424 405.766,480 444.9,480 426.234,424 "/><rect x="168" y="312" width="176" height="16"/><rect x="200" y="344" width="112" height="32"/><rect x="32" y="392" width="448" height="16"/><path d="M256,48c0.675,0,1.35,0.085,2.008,0.256l208.188,53.975l4.103-16.41L256,32.246L41.701,85.821l4.103,16.41l208.188-53.975  C254.65,48.085,255.325,48,256,48z"/><path d="M424,107.82L256,64.265L88,107.82V152h336V107.82z M256,136c-13.233,0-24-10.766-24-24s10.767-24,24-24s24,10.766,24,24  S269.233,136,256,136z"/><path d="M184,344h-24c-4.418,0-8-3.582-8-8v-32c0-4.418,3.582-8,8-8h192c4.418,0,8,3.582,8,8v32c0,4.418-3.582,8-8,8h-24v32h123.768  l-49-112H109.232l-49,112H184V344z M416,344c4.418,0,8,3.582,8,8s-3.582,8-8,8s-8-3.582-8-8S411.582,344,416,344z M392,296  c4.418,0,8,3.582,8,8s-3.582,8-8,8s-8-3.582-8-8S387.582,296,392,296z M96,360c-4.418,0-8-3.582-8-8s3.582-8,8-8s8,3.582,8,8  S100.418,360,96,360z M120,312c-4.418,0-8-3.582-8-8s3.582-8,8-8s8,3.582,8,8S124.418,312,120,312z"/><path d="M402.667,168H109.333L76,248h360L402.667,168z M112,232c-4.418,0-8-3.582-8-8s3.582-8,8-8s8,3.582,8,8S116.418,232,112,232z   M128,200c-4.418,0-8-3.582-8-8s3.582-8,8-8s8,3.582,8,8S132.418,200,128,200z M384,200c-4.418,0-8-3.582-8-8s3.582-8,8-8  s8,3.582,8,8S388.418,200,384,200z M400,232c-4.418,0-8-3.582-8-8s3.582-8,8-8s8,3.582,8,8S404.418,232,400,232z"/><circle cx="256" cy="112" r="8"/><text x="0" y="527" fill="#000000" font-size="5px" font-weight="bold" font-family="'Helvetica Neue', Helvetica, Arial-Unicode, Arial, Sans-serif">Created by iconixar</text><text x="0" y="532" fill="#000000" font-size="5px" font-weight="bold" font-family="'Helvetica Neue', Helvetica, Arial-Unicode, Arial, Sans-serif">from the Noun Project</text></svg>