<svg xmlns="http://www.w3.org/2000/svg" data-name="Layer 3" viewBox="0 0 128 160" x="0px" y="0px"><path d="M107.09,83.47c.96-5.91-1.9-8.27-7.74-10.72-3.74,15.06-16.66,27.89-30.13,35.6,17.39-.56,35.08-7.79,37.86-24.89Z"/><path d="M16.7,85.23c6.9-6.76,12.62-12.6,13.76-23.07,.67-6.02,6.11-17.14,10.59-21.64,.8-.8,1.65-1.54,2.52-2.26-11.4,.29-22.36,6.34-27.51,16.63-4.32,8.58-5.14,20.42,.64,30.33Z"/><path d="M13.72,102.65h0c23.06,35.56,108.38-16.26,76.65-57.78-11.89-15.57-34.63-14.84-47.2-2.23-4.04,4.06-9.13,14.45-9.73,19.85-2.53,23.26-27.92,27.5-19.73,40.16Z"/><path d="M86.38,36.69c9.99-11.13,3.26-25.72-.38-22.79-.8,.68-.94,1.81-.37,2.61,3.72,5.2,2.57,12.78-2.47,18.06,.65,.37,2.39,1.51,3.22,2.13Z"/><path d="M115.74,25.82c-5.61-7.07-16.45-6.15-20.86,1.64,5.58,7.04,16.43,6.18,20.86-1.64Z"/><text x="0" y="143" fill="#000000" font-size="5px" font-weight="bold" font-family="'Helvetica Neue', Helvetica, Arial-Unicode, Arial, Sans-serif">Created by manogi</text><text x="0" y="148" fill="#000000" font-size="5px" font-weight="bold" font-family="'Helvetica Neue', Helvetica, Arial-Unicode, Arial, Sans-serif">from the Noun Project</text></svg>