<?xml version="1.0" standalone="no"?>
<!DOCTYPE svg PUBLIC "-//W3C//DTD SVG 20010904//EN"
 "http://www.w3.org/TR/2001/REC-SVG-20010904/DTD/svg10.dtd">
<svg version="1.0" xmlns="http://www.w3.org/2000/svg"
 width="512.000000pt" height="512.000000pt" viewBox="0 0 512.000000 512.000000"
 preserveAspectRatio="xMidYMid meet">

<g transform="translate(0.000000,512.000000) scale(0.100000,-0.100000)"
fill="#de2122" stroke="none">
<path d="M1204 4894 c-531 -334 -928 -859 -1100 -1456 -62 -216 -104 -484
-104 -663 0 -84 14 -114 60 -137 32 -17 90 -18 758 -18 800 0 780 -2 806 62 7
18 16 70 20 114 22 275 174 537 403 692 104 70 121 108 84 180 -69 135 -716
1241 -737 1260 -43 38 -87 30 -190 -34z"/>
<path d="M3726 4928 c-21 -19 -668 -1125 -737 -1260 -37 -72 -20 -110 82 -179
236 -160 380 -410 408 -705 10 -108 25 -139 78 -154 26 -8 261 -10 765 -8 720
3 727 3 755 24 43 32 49 74 35 253 -58 756 -419 1421 -1016 1870 -229 172
-314 209 -370 159z"/>
<path d="M2415 3215 c-260 -82 -414 -353 -350 -613 61 -249 316 -421 568 -382
93 14 202 66 268 127 217 201 226 530 20 733 -111 110 -215 151 -376 149 -49
-1 -108 -7 -130 -14z"/>
<path d="M1997 1922 c-42 -25 -767 -1283 -767 -1330 0 -52 42 -85 212 -166
242 -116 471 -188 743 -233 172 -28 603 -25 780 5 265 46 501 122 735 238 157
78 190 105 190 158 0 45 -726 1304 -767 1328 -39 25 -59 23 -138 -15 -147 -71
-273 -100 -425 -100 -154 0 -279 30 -425 100 -79 38 -99 40 -138 15z"/>
</g>
</svg>
